<svg width="100" height="35" viewBox="0 0 100 35" fill="none" xmlns="http://www.w3.org/2000/svg">
<g clip-path="url(#clip0_1772_897)">
<path d="M38.1162 19.9204V17.6135H43.581C44.4167 17.6135 45.0687 17.376 45.5366 16.9011C46.0042 16.4261 46.2383 15.8 46.2383 15.0259C46.2383 14.2518 46.0042 13.6134 45.5366 13.1508C45.0687 12.6882 44.4167 12.4569 43.581 12.4569H36.3762V23.7124H34.0176V10.0713H43.581C44.3674 10.0713 45.0687 10.1869 45.6873 10.4182C46.3043 10.6496 46.8258 10.9749 47.2505 11.3944C47.6751 11.8138 47.9996 12.3227 48.2243 12.9226C48.4489 13.5224 48.5613 14.1978 48.5613 14.9488C48.5613 15.6998 48.4489 16.3583 48.2243 16.9658C47.9996 17.5719 47.6751 18.0946 47.2505 18.5326C46.8258 18.9705 46.3059 19.3113 45.6873 19.5549C45.0705 19.7986 44.3674 19.9204 43.581 19.9204H38.1162Z" fill="#9CA1AA"/>
<path d="M56.3013 23.7092V18.531L49.0781 10.0713H52.2781L57.5752 16.3552L62.8894 10.0713H65.9217L58.6784 18.531V23.7092H56.3013Z" fill="#9CA1AA"/>
<path d="M74.1168 23.7092V12.4538H67.8574V10.0713H82.7618V12.4538H76.4936V23.7092H74.1168Z" fill="#9CA1AA"/>
<path d="M97.6328 10.0713H100.001V23.7092H97.6328V10.0713Z" fill="#9CA1AA"/>
<path d="M87.4146 23.7092V17.8062H96.2237V15.6952H87.4146V10.0713H85.0469V23.7092H87.4146Z" fill="#9CA1AA"/>
<path d="M17.0078 13.6374C17.0078 15.5202 15.4846 17.0469 13.6061 17.0469V20.4564C17.3632 20.4564 20.4095 17.4031 20.4095 13.6374C20.4095 9.87166 17.3632 6.81836 13.6061 6.81836C12.3676 6.81836 11.2045 7.14993 10.2044 7.73127C8.1705 8.90941 6.80273 11.113 6.80273 13.6374V30.6849L9.86133 33.7504L10.2044 34.0943V13.6374C10.2044 11.7545 11.7275 10.2279 13.6061 10.2279C15.4846 10.2279 17.0078 11.7545 17.0078 13.6374Z" fill="#9CA1AA"/>
<path d="M13.6067 0C11.1282 0 8.80499 0.664627 6.80335 1.8258C5.52177 2.56753 4.37403 3.51282 3.40167 4.61848C1.28467 7.02253 0 10.1807 0 13.638V23.8665L3.40167 27.276V13.638C3.40167 10.6094 4.71559 7.88764 6.80335 6.01403C7.78493 5.13507 8.93729 4.44113 10.2051 3.99394C11.2682 3.61458 12.4144 3.4095 13.6067 3.4095C19.2423 3.4095 23.8118 7.98941 23.8118 13.638C23.8118 19.2865 19.2423 23.8665 13.6067 23.8665V27.276C21.1224 27.276 27.2134 21.1694 27.2134 13.638C27.2134 6.10654 21.1224 0 13.6067 0Z" fill="#9CA1AA"/>
</g>
<defs>
<clipPath id="clip0_1772_897">
<rect width="100" height="34.0944" fill="white"/>
</clipPath>
</defs>
</svg>
